<?xml version="1.0" encoding="utf-8"?>
<!-- Generator: Adobe Illustrator 16.0.0, SVG Export Plug-In . SVG Version: 6.00 Build 0)  -->
<!DOCTYPE svg PUBLIC "-//W3C//DTD SVG 1.1//EN" "http://www.w3.org/Graphics/SVG/1.1/DTD/svg11.dtd">
<svg version="1.1" id="Layer_1" xmlns="http://www.w3.org/2000/svg" xmlns:xlink="http://www.w3.org/1999/xlink" x="0px" y="0px"
	 width="300px" height="300px" viewBox="0 0 300 300" enable-background="new 0 0 300 300" xml:space="preserve">
<g opacity="0.4">
	<circle cx="91.039" cy="170.64" r="7.044"/>
	<path d="M151.965,231.81v-23.597c2.653-0.519,4.588-2.03,4.588-3.835c0-2.233-2.933-4.046-6.553-4.046
		c-3.62,0-6.552,1.812-6.552,4.046c0,1.805,1.934,3.316,4.587,3.835v23.597c-0.054,0.064-4.503,5.242-17.131,8.438
		c12.133,0,17.15-2.986,19.097-4.745c1.947,1.759,6.963,4.745,19.097,4.745C156.469,237.052,152.02,231.874,151.965,231.81z"/>
	<path d="M150,0.632C67.508,0.632,0.631,67.506,0.631,150c0,82.492,66.876,149.368,149.368,149.368
		c82.493,0,149.369-66.876,149.369-149.368C299.368,67.506,232.492,0.632,150,0.632z M150,252.36
		c-56.335,0-102.007-45.671-102.007-102.007c0-23.074,7.669-44.35,20.583-61.439c18.62,13.524,48.16,22.268,81.424,22.268
		c33.265,0,62.805-8.744,81.424-22.268c12.914,17.09,20.582,38.365,20.582,61.439C252.006,206.689,206.336,252.36,150,252.36z"/>
	<path d="M208.961,163.596c-3.89,0-7.043,3.152-7.043,7.041c0,3.893,3.153,7.048,7.043,7.048c3.889,0,7.044-3.155,7.044-7.048
		C216.005,166.748,212.85,163.596,208.961,163.596z"/>
</g>
<path opacity="0.2" d="M231.424,131.312c6.408,0,12.457-1.462,17.901-4.005c-3.271-14.141-9.43-27.179-17.901-38.393
	c-10.092,7.328-23.407,13.236-38.767,17.126C199.241,120.917,214.108,131.312,231.424,131.312z"/>
<path opacity="0.2" d="M50.676,127.307c5.442,2.543,11.492,4.005,17.899,4.005c17.315,0,32.184-10.395,38.767-25.272
	c-15.359-3.89-28.675-9.798-38.767-17.126C60.104,100.127,53.946,113.166,50.676,127.307z"/>
</svg>
