<?xml version="1.0" encoding="utf-8"?>
<!-- Generator: Adobe Illustrator 16.0.0, SVG Export Plug-In . SVG Version: 6.00 Build 0)  -->
<!DOCTYPE svg PUBLIC "-//W3C//DTD SVG 1.1//EN" "http://www.w3.org/Graphics/SVG/1.1/DTD/svg11.dtd">
<svg version="1.1" id="Layer_1" xmlns="http://www.w3.org/2000/svg" xmlns:xlink="http://www.w3.org/1999/xlink" x="0px" y="0px"
	 width="160px" height="160px" viewBox="0 0 160 160" enable-background="new 0 0 160 160" xml:space="preserve">
<circle fill="#FFFFFF" stroke="#000000" stroke-miterlimit="10" cx="-898.501" cy="709.831" r="400"/>
<circle fill="#FFFFFF" stroke="#000000" stroke-miterlimit="10" cx="-898.501" cy="709.831" r="364.658"/>
<text transform="matrix(1 0 0 1 -1183.75 808.2139)" font-family="'MyriadPro-Regular'" font-size="524.4722">h</text>
<circle fill="none" stroke="#000000" stroke-width="10" stroke-miterlimit="10" cx="-28.501" cy="679.831" r="75"/>
<g>
	<path d="M-34.599,749.549v-55.126c0-14.838-10.831-27.187-25-29.575v-47.705c-3.511,1.749-6.854,3.783-10,6.074v113.229
		c3.146,2.291,6.489,4.325,10,6.074v-67.438c8.612,2.229,15,10.043,15,19.342v53.519C-41.346,748.711-38.008,749.253-34.599,749.549
		z"/>
</g>
<g>
	<path d="M10.401,737.993V621.669c-3.159-2.12-6.507-3.976-10-5.567v77.663c-8.612-2.229-15-10.043-15-19.342v-9.575h-10v9.575
		c0,10.425,5.348,19.621,13.441,25c-8.094,5.379-13.441,14.575-13.441,25v25.294c3.403-0.188,6.742-0.618,10-1.277v-24.017
		c0-9.299,6.388-17.113,15-19.342v38.479C3.895,741.97,7.242,740.113,10.401,737.993z"/>
</g>
<circle fill="none" stroke="#000000" stroke-width="10" stroke-miterlimit="10" cx="-226.766" cy="679.831" r="75"/>
<g>
	<path d="M-232.863,749.549v-55.126c0-14.838-10.831-27.187-25-29.575v-47.705c-3.511,1.749-6.854,3.783-10,6.074v113.229
		c3.146,2.291,6.489,4.325,10,6.074v-67.438c8.612,2.229,15,10.043,15,19.342v53.519
		C-239.61,748.711-236.272,749.253-232.863,749.549z"/>
</g>
<g>
	<path d="M-222.863,752.161v-147.23c3.159-2.12,6.507,2.782,10,1.191v87.642c8.612-2.229,15-10.043,15-19.342v-9.575h10v9.575
		c0,10.425-5.348,19.621-13.441,25c8.094,5.379,13.441,14.575,13.441,25v25.294c-3.403-0.188-6.742-0.618-10-1.277v-24.017
		c0-9.299-6.388-17.113-15-19.342v47.326C-216.356,750.817-219.704,754.281-222.863,752.161z"/>
</g>
<g opacity="0.5">
	<path d="M192.597,759.831c-44.112,0-80-35.888-80-80s35.888-80,80-80s80,35.888,80,80S236.709,759.831,192.597,759.831z
		 M192.597,609.831c-38.598,0-70,31.402-70,70c0,38.598,31.402,70,70,70s70-31.402,70-70
		C262.597,641.233,231.194,609.831,192.597,609.831z"/>
</g>
<g opacity="0.5">
	<path d="M186.499,749.549v-55.126c0-14.838-10.831-27.187-25-29.575v-47.705c-3.511,1.749-6.854,3.783-10,6.074v113.229
		c3.146,2.291,6.489,4.325,10,6.074v-67.438c8.612,2.229,15,10.043,15,19.342v53.519
		C179.752,748.711,183.09,749.253,186.499,749.549z"/>
</g>
<g opacity="0.5">
	<path d="M231.499,737.993V621.669c-3.159-2.12-6.507-3.976-10-5.567v97.663c-8.612-2.229-15-10.043-15-19.342v-25h-10v25
		c0,10.426,5.348,19.621,13.441,25c-8.094,5.379-13.441,14.575-13.441,25v5.294c3.403-0.188,6.742-0.618,10-1.277v-4.017
		c0-9.299,6.388-17.113,15-19.342v18.479C224.992,741.97,228.34,740.113,231.499,737.993z"/>
</g>
<path d="M378.097,604.832c-44.112,0-80,35.888-80,80c0,44.113,35.888,80,80,80s80-35.887,80-80
	C458.097,640.719,422.209,604.832,378.097,604.832z M336.999,741.445c-17.498-12.737-28.902-33.364-28.902-56.614
	c0-23.25,11.402-43.875,28.902-56.61V741.445z M361.999,752.941c-5.252-1.241-10.276-3.069-15-5.422v-67.438
	c8.612,2.229,15,10.043,15,19.342V752.941z M406.999,748.555c-4.744,2.164-9.762,3.825-15,4.885v-4.017
	c0-9.299,6.388-17.113,15-19.342V748.555z M406.999,718.765c-8.612-2.229-15-10.042-15-19.341v-25h-10v25
	c0,10.426,5.348,19.621,13.441,25c-8.094,5.379-13.441,14.576-13.441,25v5.294c-1.293,0.071-2.592,0.114-3.902,0.114
	c-2.056,0-4.086-0.107-6.098-0.282v-55.125c0-14.838-10.831-27.187-25-29.575v-47.705c9.376-4.67,19.932-7.312,31.098-7.312
	c10.304,0,20.085,2.256,28.902,6.271V718.765z M416.999,742.968V626.694c18.733,12.573,31.098,33.93,31.098,58.138
	C448.097,709.038,435.731,730.395,416.999,742.968z"/>
<circle fill="none" stroke="#000000" stroke-width="10" stroke-miterlimit="10" cx="-28.501" cy="850.132" r="75"/>
<circle fill="none" stroke="#000000" stroke-width="10" stroke-miterlimit="10" cx="298.097" cy="850.132" r="75"/>
<line fill="none" stroke="#000000" stroke-width="10" stroke-miterlimit="10" x1="-68.501" y1="775.132" x2="-68.501" y2="924.884"/>
<line fill="none" stroke="#000000" stroke-width="10" stroke-miterlimit="10" x1="-38.501" y1="880.008" x2="-38.501" y2="924.884"/>
<line fill="none" stroke="#000000" stroke-width="10" stroke-miterlimit="10" x1="-18.501" y1="775.132" x2="-18.501" y2="924.884"/>
<line fill="none" stroke="#000000" stroke-width="10" stroke-miterlimit="10" x1="11.499" y1="910.008" x2="11.499" y2="924.884"/>
<path fill="none" stroke="#000000" stroke-width="10" stroke-miterlimit="10" d="M-68.501,850.008c16.568,0,30,13.432,30,30"/>
<path fill="none" stroke="#000000" stroke-width="10" stroke-miterlimit="10" d="M-18.501,880.008c16.568,0,30,13.432,30,30"/>
<path fill="none" stroke="#000000" stroke-width="10" stroke-miterlimit="10" d="M-18.501,880.008c16.568,0,30-13.432,30-30"/>
<circle fill="none" stroke="#000000" stroke-width="10" stroke-miterlimit="10" cx="148.604" cy="850.008" r="30"/>
<line fill="none" stroke="#000000" stroke-width="10" stroke-miterlimit="10" x1="268.097" y1="775.132" x2="268.097" y2="925.132"/>
<line fill="none" stroke="#000000" stroke-width="10" stroke-miterlimit="10" x1="288.097" y1="775.132" x2="288.097" y2="925.132"/>
<line fill="none" stroke="#000000" stroke-width="10" stroke-miterlimit="10" x1="308.097" y1="775.132" x2="308.097" y2="925.132"/>
<line fill="none" stroke="#000000" stroke-width="10" stroke-miterlimit="10" x1="328.097" y1="775.132" x2="328.097" y2="925.132"/>
<line fill="none" stroke="#000000" stroke-width="10" stroke-miterlimit="10" x1="288.097" y1="850.132" x2="268.097" y2="850.132"/>
<circle fill="none" stroke="#000000" stroke-width="10" stroke-miterlimit="10" cx="466.498" cy="859.799" r="75"/>
<line fill="none" stroke="#000000" stroke-width="10" stroke-miterlimit="10" x1="436.498" y1="784.799" x2="436.498" y2="934.799"/>
<line fill="none" stroke="#000000" stroke-width="10" stroke-miterlimit="10" x1="456.498" y1="784.799" x2="456.498" y2="934.799"/>
<line fill="none" stroke="#000000" stroke-width="10" stroke-miterlimit="10" x1="476.498" y1="784.799" x2="476.498" y2="934.799"/>
<line fill="none" stroke="#000000" stroke-width="10" stroke-miterlimit="10" x1="496.498" y1="880.008" x2="496.498" y2="934.799"/>
<line fill="none" stroke="#000000" stroke-width="10" stroke-miterlimit="10" x1="496.498" y1="785.217" x2="496.498" y2="840.008"/>
<line fill="none" stroke="#000000" stroke-width="10" stroke-miterlimit="10" x1="456.498" y1="859.799" x2="436.498" y2="859.799"/>
<path fill="none" stroke="#000000" stroke-width="10" stroke-miterlimit="10" d="M476.498,860.008c11.046,0,20-8.954,20-20"/>
<path fill="none" stroke="#000000" stroke-width="10" stroke-miterlimit="10" d="M476.498,860.008c11.046,0,20,8.954,20,20"/>
<line fill="none" stroke="#000000" stroke-width="10" stroke-miterlimit="10" x1="278.097" y1="949.466" x2="278.097" y2="1099.466"/>
<line fill="none" stroke="#000000" stroke-width="10" stroke-miterlimit="10" x1="298.097" y1="1044.675" x2="298.097" y2="1099.466"/>
<path fill="none" stroke="#000000" stroke-width="10" stroke-miterlimit="10" d="M278.097,1024.675c11.046,0,20,8.954,20,20"/>
<line fill="none" stroke="#000000" stroke-width="10" stroke-miterlimit="10" x1="338.097" y1="949.466" x2="338.097" y2="1099.466"/>
<line fill="none" stroke="#000000" stroke-width="10" stroke-miterlimit="10" x1="318.097" y1="1044.675" x2="318.097" y2="1099.466"/>
<path fill="none" stroke="#000000" stroke-width="10" stroke-miterlimit="10" d="M338.097,1024.675c-11.046,0-20,8.954-20,20"/>
<circle fill="none" stroke="#000000" stroke-width="10" stroke-miterlimit="10" cx="138.999" cy="1009.799" r="75"/>
<line fill="none" stroke="#000000" stroke-width="10" stroke-miterlimit="10" x1="108.999" y1="954.799" x2="108.999" y2="1104.799"/>
<line fill="none" stroke="#000000" stroke-width="10" stroke-miterlimit="10" x1="128.999" y1="954.799" x2="128.999" y2="1104.799"/>
<line fill="none" stroke="#000000" stroke-width="10" stroke-miterlimit="10" x1="148.999" y1="954.799" x2="148.999" y2="1104.799"/>
<line fill="none" stroke="#000000" stroke-width="10" stroke-miterlimit="10" x1="128.999" y1="1029.799" x2="108.999" y2="1029.799"/>
<polyline fill="none" stroke="#000000" stroke-width="10" stroke-miterlimit="10" points="168.999,935.217 168.999,1010.008 
	148.999,1029.799 168.999,1050.008 168.999,1084.799 "/>
<g>
	<path d="M-131.363,441.164c-44.112,0-80,35.888-80,80s35.888,80,80,80s80-35.888,80-80S-87.251,441.164-131.363,441.164z
		 M-172.461,577.774c-17.499-12.734-28.902-33.36-28.902-56.61s11.403-43.876,28.902-56.61V577.774z M-147.461,589.259
		c-5.25-1.239-10.278-3.054-15-5.406v-67.438c8.612,2.229,15,10.043,15,19.342V589.259z M-127.461,591.049
		c-1.292,0.072-2.593,0.115-3.902,0.115c-2.057,0-4.088-0.104-6.098-0.284v-55.124c0-14.838-10.831-27.187-25-29.575v-47.705
		c9.376-4.67,19.932-7.312,31.098-7.312c1.31,0,2.61,0.043,3.902,0.115V591.049z M-102.461,584.893c-4.745,2.161-9.763,3.82-15,4.88
		v-43.359c8.612,2.229,15,10.043,15,19.342V584.893z M-92.461,579.326v-13.57c0-10.425-5.348-19.621-13.441-25
		c8.094-5.379,13.441-14.574,13.441-25v-9.575h-10v9.575c0,9.299-6.388,17.113-15,19.342v-82.542
		c31.96,6.466,56.098,34.77,56.098,68.609C-61.363,545.376-73.723,566.752-92.461,579.326z"/>
</g>
<g>
	<path fill="#307FD2" d="M80,441.164c-44.112,0-80,35.888-80,80s35.888,80,80,80s80-35.888,80-80S124.112,441.164,80,441.164z
		 M38.902,577.774C21.403,565.04,10,544.415,10,521.164s11.403-43.876,28.902-56.61V577.774z M63.902,589.259
		c-5.25-1.239-10.278-3.054-15-5.406v-67.438c8.612,2.229,15,10.043,15,19.342V589.259z M83.902,591.049
		c-1.292,0.072-2.593,0.115-3.902,0.115c-2.057,0-4.088-0.104-6.098-0.284v-55.124c0-14.838-10.831-27.187-25-29.575v-47.705
		c9.376-4.67,19.932-7.312,31.098-7.312c1.31,0,2.61,0.043,3.902,0.115V591.049z M108.902,584.893c-4.745,2.161-9.763,3.82-15,4.88
		v-43.359c8.612,2.229,15,10.043,15,19.342V584.893z M118.902,579.326v-13.57c0-10.425-5.348-19.621-13.441-25
		c8.094-5.379,13.441-14.574,13.441-25v-9.575h-10v9.575c0,9.299-6.388,17.113-15,19.342v-82.542
		c31.96,6.466,56.098,34.77,56.098,68.609C150,545.376,137.641,566.752,118.902,579.326z"/>
</g>
<g>
	<path fill="#307FD2" d="M80,268.498c-44.112,0-80,35.888-80,80s35.888,80,80,80s80-35.888,80-80S124.112,268.498,80,268.498z
		 M38.902,405.108C21.403,392.374,10,371.748,10,348.498s11.403-43.876,28.902-56.61V405.108z M63.902,416.592
		c-5.25-1.239-10.278-3.054-15-5.406v-67.438c8.612,2.229,15,10.043,15,19.342V416.592z M83.902,418.383
		c-1.292,0.072-2.593,0.115-3.902,0.115c-2.057,0-4.088-0.104-6.098-0.284v-55.124c0-14.838-10.831-27.187-25-29.575v-47.705
		c9.376-4.67,19.932-7.312,31.098-7.312c1.31,0,2.61,0.043,3.902,0.115V418.383z M108.902,412.227c-4.745,2.161-9.763,3.82-15,4.88
		v-43.359c8.612,2.229,15,10.043,15,19.342V412.227z M118.902,406.66v-13.57c0-10.425-5.348-19.621-13.441-25
		c8.094-5.379,13.441-14.574,13.441-25v-9.575l-10,9.575l0,0c0,9.299-6.388,17.113-15,19.342v-82.542
		c31.96,6.466,56.098,34.77,56.098,68.609C150,372.709,137.641,394.085,118.902,406.66z"/>
</g>
<g>
	<path d="M80,0C35.888,0,0,35.888,0,80s35.888,80,80,80s80-35.888,80-80S124.112,0,80,0z M38.902,136.61
		C21.403,123.876,10,103.25,10,80s11.403-43.876,28.902-56.61V136.61z M63.902,148.095c-5.25-1.239-10.278-3.054-15-5.406V75.25
		c8.612,2.229,15,10.043,15,19.342V148.095z M83.902,149.885C82.61,149.957,81.31,150,80,150c-2.057,0-4.088-0.104-6.098-0.284
		V94.592c0-14.838-10.831-27.187-25-29.575V17.312C58.278,12.642,68.834,10,80,10c1.31,0,2.61,0.043,3.902,0.115V149.885z
		 M108.902,143.729c-4.745,2.161-9.763,3.82-15,4.88V105.25c8.612,2.229,15,10.043,15,19.342V143.729z M118.902,138.162v-13.57
		c0-10.425-5.348-19.621-13.441-25c8.094-5.379,13.441-14.574,13.441-25v-9.575l-10,9.575l0,0c0,9.299-6.388,17.113-15,19.342
		V11.391C125.862,17.857,150,46.161,150,80C150,104.212,137.641,125.588,118.902,138.162z"/>
</g>
<g>
	<g>
		<path d="M288.097,441.164c-44.112,0-80,35.888-80,80s35.888,80,80,80s80-35.888,80-80S332.209,441.164,288.097,441.164z
			 M246.999,577.774c-17.499-12.734-28.902-33.36-28.902-56.61s11.403-43.876,28.902-56.61V577.774z M271.999,589.259
			c-5.25-1.239-10.278-3.054-15-5.406v-53.868c8.612,2.229,15,10.043,15,19.342V589.259z M291.999,591.049
			c-1.292,0.072-2.593,0.115-3.902,0.115c-2.057,0-4.088-0.104-6.098-0.284v-41.554c0-14.838-10.831-27.187-25-29.575v-61.275
			c9.376-4.67,19.932-7.312,31.098-7.312c1.31,0,2.61,0.043,3.902,0.115V591.049z M316.999,584.893c-4.745,2.161-9.763,3.82-15,4.88
			v-29.789c8.612,2.229,15,10.043,15,19.342V584.893z M326.999,579.326L326.999,579.326c0-10.425-5.348-19.621-13.441-25
			c8.094-5.379,13.441-14.574,13.441-25v-34.402l-10,10v24.402c0,9.299-6.388,17.113-15,19.342v-96.113
			c31.96,6.466,56.098,34.77,56.098,68.609C358.097,545.376,345.737,566.752,326.999,579.326z"/>
	</g>
</g>
<g>
	<g>
		<path d="M471.498,441.164c-44.112,0-80,35.888-80,80s35.888,80,80,80s80-35.888,80-80S515.61,441.164,471.498,441.164z
			 M430.4,577.774c-17.499-12.734-28.902-33.36-28.902-56.61s11.403-43.876,28.902-56.61V577.774z M455.4,589.259
			c-5.25-1.239-10.278-3.054-15-5.406v-53.868c8.612,2.229,15,10.043,15,19.342V589.259z M475.4,591.049
			c-1.292,0.072-2.593,0.115-3.902,0.115c-2.057,0-4.088-0.104-6.098-0.284v-41.554c0-14.838-10.831-27.187-25-29.575v-61.275
			c9.376-4.67,19.932-7.312,31.098-7.312c1.31,0,2.61,0.043,3.902,0.115V591.049z M500.4,584.893c-4.745,2.161-9.763,3.82-15,4.88
			v-37.951c8.612,2.229,15,10.043,15,19.342V584.893z M510.4,579.326v-8.162c0-10.425-5.348-19.621-13.441-25
			c8.094-5.379,13.441-14.574,13.441-25v-26.24l-10,10v16.24c0,9.299-6.388,17.113-15,19.342v-87.951
			c31.96,6.466,56.098,34.77,56.098,68.609C541.498,545.376,529.139,566.752,510.4,579.326z"/>
	</g>
</g>
<g>
	<g>
		<path d="M640.165,441.164c-44.112,0-80,35.888-80,80s35.888,80,80,80s80-35.888,80-80S684.277,441.164,640.165,441.164z
			 M599.067,577.774c-17.499-12.734-28.902-33.36-28.902-56.61s11.403-43.876,28.902-56.61V577.774z M624.067,589.259
			c-5.25-1.239-10.278-3.054-15-5.406v-53.868c8.612,2.229,15,10.043,15,19.342V589.259z M644.067,591.049
			c-1.292,0.072-2.593,0.115-3.902,0.115c-2.057,0-4.088-0.104-6.098-0.284v-41.554c0-14.838-10.831-27.187-25-29.575v-61.275
			c9.376-4.67,19.932-7.312,31.098-7.312c1.31,0,2.61,0.043,3.902,0.115V591.049z M669.067,584.893c-4.745,2.161-9.763,3.82-15,4.88
			v-59.789c8.612,2.229,15,10.043,15,19.342V584.893z M679.067,579.326v-30c0-10.425-5.348-19.621-13.441-25
			c8.094-5.379,13.441-14.574,13.441-25v-9.583l-10,10v-0.417c0,9.299-6.388,17.113-15,19.342v-66.113
			c31.96,6.466,56.098,34.77,56.098,68.609C710.165,545.376,697.806,566.752,679.067,579.326z"/>
	</g>
</g>
</svg>
